<?xml version="1.0" standalone="no"?>
<!DOCTYPE svg PUBLIC "-//W3C//DTD SVG 20010904//EN"
 "http://www.w3.org/TR/2001/REC-SVG-20010904/DTD/svg10.dtd">
<svg version="1.0" xmlns="http://www.w3.org/2000/svg"
 width="2000.000000pt" height="200.000000pt" viewBox="0 0 2000.000000 200.000000"
 preserveAspectRatio="xMidYMid meet">
<metadata>
Created by potrace 1.16, written by Peter Selinger 2001-2019
</metadata>
<g transform="translate(0.000000,200.000000) scale(0.100000,-0.100000)"
fill="#122A57" stroke="none">
<path d="M623 1298 c-16 -21 -23 -48 -13 -48 6 0 9 -3 8 -7 -1 -5 4 -19 11
-31 11 -21 10 -26 -8 -43 -11 -11 -24 -31 -27 -45 -4 -17 -9 -22 -14 -14 -11
18 -23 -44 -15 -79 12 -57 44 -47 90 27 22 36 29 41 41 31 8 -6 12 -14 10 -17
-3 -2 6 -14 20 -25 21 -16 30 -18 50 -8 27 12 34 58 9 67 -8 4 -12 11 -8 17 3
5 -2 16 -11 22 -15 11 -12 17 29 59 49 51 52 58 31 75 -19 16 -49 9 -89 -22
-43 -33 -45 -33 -40 -3 8 38 -52 72 -74 44z"/>
<path d="M13128 1224 c-2 -2 -13 -5 -24 -8 -51 -11 -62 -19 -68 -48 -3 -17 -6
-34 -6 -39 0 -5 33 -8 73 -8 75 1 102 -3 133 -19 11 -5 33 -16 49 -24 82 -41
249 -47 257 -9 4 18 -40 71 -60 71 -7 0 -10 -4 -7 -10 3 -5 2 -10 -4 -10 -5 0
-11 4 -13 10 -3 10 -108 33 -116 26 -2 -3 -13 4 -25 15 -11 10 -28 19 -37 19
-9 0 -25 7 -36 15 -24 18 -54 19 -54 3 0 -10 -2 -10 -8 0 -8 12 -46 24 -54 16z"/>
<path d="M12318 1193 c-16 -10 -28 -25 -28 -35 0 -9 -5 -20 -11 -24 -6 -3 -9
-14 -6 -25 3 -10 -4 -25 -15 -35 -14 -13 -17 -25 -12 -44 3 -14 7 -31 7 -37 0
-7 5 -13 11 -13 6 0 2 -7 -8 -15 -11 -8 -14 -15 -8 -15 7 0 12 -11 12 -24 0
-14 5 -28 11 -32 6 -3 9 -24 7 -46 -3 -34 -1 -39 14 -35 14 4 18 -1 18 -19 0
-30 32 -64 57 -59 10 2 21 4 24 4 6 1 16 24 24 58 2 6 -10 24 -26 40 -19 19
-29 38 -29 60 0 17 -4 35 -10 38 -17 11 -11 112 11 170 33 89 16 125 -43 88z"/>
<path d="M865 1151 c-6 -20 -2 -37 8 -33 4 1 7 -4 7 -12 0 -8 15 -17 35 -20
26 -5 35 -12 35 -26 0 -13 7 -20 19 -20 11 0 23 -4 26 -10 9 -14 115 -63 122
-56 3 3 22 -3 43 -14 21 -11 40 -17 43 -13 3 3 26 -4 50 -16 24 -12 51 -19 58
-16 8 3 32 -4 53 -15 21 -10 43 -17 49 -13 5 3 12 1 16 -6 4 -6 50 -13 107
-17 54 -3 104 -7 110 -9 16 -5 54 23 54 40 0 16 -27 33 -62 39 -13 3 -23 5
-23 6 0 1 -21 3 -47 5 -27 1 -48 -1 -48 -7 0 -5 -5 -6 -10 -3 -6 4 -8 10 -5
15 6 10 -19 18 -70 22 -16 2 -33 7 -36 12 -4 5 -25 10 -47 11 -22 1 -48 9 -57
19 -10 9 -25 14 -35 11 -10 -3 -21 -2 -24 3 -3 5 -17 8 -31 6 -16 -1 -28 3
-32 12 -3 8 -9 12 -14 9 -8 -5 -148 60 -159 74 -12 14 -52 31 -61 25 -5 -3
-15 -1 -22 4 -18 14 -46 11 -52 -7z"/>
<path d="M10958 1163 c-16 -2 -28 -7 -28 -11 0 -7 -21 -8 -167 -12 -40 0 -75
-5 -78 -10 -3 -5 -16 -4 -31 2 -19 9 -33 9 -59 0 -18 -7 -39 -11 -45 -10 -17
4 -21 -29 -8 -58 10 -22 17 -24 87 -25 97 -1 178 2 203 6 10 2 54 7 96 10 98
8 136 26 139 62 2 45 -29 58 -109 46z"/>
<path d="M11290 1135 c0 -8 -9 -20 -20 -27 -12 -8 -20 -24 -20 -40 0 -25 2
-26 58 -28 31 -1 76 -1 100 -1 27 1 41 -3 37 -9 -3 -5 0 -10 8 -10 22 0 64
-24 101 -58 22 -20 38 -27 47 -22 8 6 21 0 36 -18 13 -15 23 -24 23 -19 0 4
21 -3 48 -16 45 -23 89 -38 122 -43 8 -1 21 -3 29 -5 9 -3 19 8 25 25 10 26 8
31 -23 56 -18 16 -48 31 -66 34 -18 4 -38 13 -45 21 -7 8 -27 17 -46 21 -18 3
-38 12 -45 20 -6 8 -17 14 -23 14 -7 0 -23 11 -36 25 -16 17 -27 22 -34 15 -6
-6 -13 -2 -21 13 -6 12 -19 22 -30 22 -11 -1 -23 4 -27 10 -5 6 -11 5 -18 -5
-5 -8 -10 -10 -10 -4 0 13 -42 33 -61 30 -8 -1 -20 -5 -26 -9 -8 -5 -13 -3
-13 3 0 7 -6 10 -12 7 -7 -2 -23 0 -35 4 -17 6 -23 5 -23 -6z"/>
<path d="M6282 1118 c-3 -14 -12 -16 -52 -11 -27 3 -57 2 -67 -2 -10 -4 -25
-9 -33 -11 -8 -1 -24 -4 -35 -7 -11 -2 -24 -13 -30 -25 -12 -27 -22 -28 -28
-4 -4 16 -5 16 -6 0 -1 -14 -6 -16 -23 -9 -14 5 -34 3 -53 -4 -25 -11 -27 -13
-10 -18 13 -3 8 -6 -15 -7 -19 -1 -39 -2 -43 -1 -5 1 -6 -3 -2 -9 6 -9 -8 -15
-29 -11 -15 3 -26 -22 -15 -35 7 -9 5 -16 -8 -24 -13 -8 -14 -13 -5 -16 6 -3
10 -10 6 -15 -9 -16 23 -10 58 10 18 11 51 23 73 27 22 3 48 11 59 16 10 6 28
12 40 14 69 12 86 17 86 23 0 4 6 8 13 9 6 1 39 7 72 13 33 6 92 12 130 13 90
2 107 9 124 47 21 47 10 52 -128 53 -62 1 -75 -2 -79 -16z"/>
<path d="M16520 1120 c0 -5 -22 -10 -49 -10 -32 0 -55 -6 -65 -16 -9 -8 -20
-13 -26 -9 -5 3 -17 -3 -27 -14 -9 -11 -21 -17 -26 -14 -5 3 -18 -5 -28 -18
-10 -13 -19 -18 -19 -11 0 9 -5 10 -19 2 -11 -5 -29 -10 -40 -10 -12 0 -21 -4
-21 -9 0 -12 -39 -25 -66 -22 -13 1 -34 -11 -55 -31 -18 -18 -36 -32 -40 -31
-4 1 -13 -4 -20 -13 -10 -12 -9 -18 4 -31 17 -17 77 -27 77 -13 0 4 16 11 35
14 19 4 47 13 62 21 15 8 37 15 49 15 11 0 24 4 30 9 19 18 105 61 122 61 10
0 28 7 40 15 21 15 146 28 157 17 3 -3 15 -7 27 -9 12 -2 25 -7 28 -11 10 -14
78 -32 96 -25 27 10 44 36 33 49 -5 6 -6 14 -3 17 4 3 -6 12 -22 19 -16 7 -35
19 -43 26 -7 7 -20 11 -27 8 -8 -3 -14 -2 -14 3 0 8 -38 23 -65 25 -5 1 -13
-5 -17 -14 -5 -12 -7 -12 -7 3 -1 12 -9 17 -31 17 -16 0 -30 -4 -30 -10z"/>
<path d="M10267 1104 c-4 -4 -30 -8 -59 -9 -84 -4 -152 -16 -160 -29 -5 -7 -8
-6 -8 4 0 11 -3 10 -11 -4 -9 -15 -13 -16 -20 -5 -6 10 -9 10 -9 2 0 -7 -7
-10 -16 -6 -9 3 -20 0 -25 -8 -7 -12 -9 -12 -9 0 0 11 -4 10 -19 -3 -12 -11
-27 -15 -44 -11 -19 5 -26 3 -29 -12 -3 -14 -14 -18 -58 -20 -53 -2 -99 -8
-110 -13 -3 -1 -11 -3 -19 -4 -24 -2 -36 -32 -25 -63 9 -26 13 -28 54 -25 50
3 61 5 140 25 30 7 64 19 75 25 30 17 228 50 330 56 50 3 93 5 96 6 4 0 9 11
11 25 9 42 -58 96 -85 69z"/>
<path d="M12411 1101 c-16 -10 -8 -43 20 -83 11 -14 19 -33 19 -42 0 -9 7 -16
15 -16 8 0 15 -5 15 -11 0 -6 13 -22 30 -35 16 -14 29 -28 27 -32 -3 -9 40
-52 52 -52 4 0 21 -12 37 -27 16 -16 36 -29 44 -30 8 0 29 -4 46 -8 26 -6 32
-4 37 14 3 12 1 24 -4 27 -6 4 -6 11 1 19 7 9 6 16 -5 25 -12 10 -15 10 -15 0
0 -7 -14 2 -32 19 -18 17 -46 41 -63 53 -18 11 -42 36 -55 55 -12 18 -29 33
-36 33 -8 0 -14 7 -14 15 0 8 -4 15 -10 15 -5 0 -10 8 -10 19 0 22 -25 45 -39
37 -5 -4 -12 -2 -16 4 -8 12 -25 13 -44 1z"/>
<path d="M13600 1094 c0 -8 6 -21 13 -29 6 -7 20 -24 30 -38 10 -14 29 -28 43
-31 13 -4 24 -11 24 -16 0 -6 9 -10 19 -10 10 0 21 -6 24 -14 3 -8 14 -15 24
-15 62 -3 118 -12 124 -22 4 -6 12 -8 18 -5 6 4 27 2 46 -4 19 -6 76 -13 125
-15 50 -2 106 -9 125 -15 20 -7 42 -9 50 -6 16 6 14 40 -5 79 -12 24 -19 28
-41 23 -16 -3 -29 -1 -31 6 -2 6 -27 10 -58 10 -30 0 -79 6 -108 14 -29 8 -57
12 -62 9 -4 -3 -20 -1 -34 5 -21 8 -26 7 -26 -6 0 -14 -2 -14 -16 0 -8 9 -24
17 -35 17 -26 2 -28 3 -73 22 -21 9 -43 17 -48 17 -5 0 -7 4 -4 9 9 14 -40 31
-53 18 -6 -6 -11 -7 -11 -1 0 5 -13 11 -30 12 -22 2 -30 -2 -30 -14z"/>
<path d="M3533 1088 c-28 -8 -62 -43 -63 -65 0 -17 53 -30 58 -14 3 9 7 9 19
0 8 -8 53 -14 111 -15 53 -1 131 -6 172 -10 118 -11 132 -10 143 8 9 13 5 22
-21 46 -18 17 -32 27 -32 24 0 -4 -4 -1 -9 6 -6 11 -13 11 -35 1 -17 -8 -30
-9 -34 -3 -10 13 -29 16 -104 17 -38 1 -68 4 -68 8 0 9 -100 7 -137 -3z"/>
<path d="M6680 1086 c0 -9 -6 -13 -14 -10 -8 3 -19 -3 -26 -15 -17 -32 3 -61
43 -62 18 0 47 -1 65 -2 17 -1 32 2 32 7 0 5 8 2 18 -7 14 -13 21 -14 30 -5 9
9 15 9 24 0 7 -7 18 -12 25 -12 8 0 25 -7 39 -17 25 -16 46 -20 155 -26 30 -2
60 -7 66 -10 7 -4 41 -9 77 -11 60 -3 67 -1 82 21 18 28 12 55 -11 47 -8 -3
-15 -2 -15 4 0 15 -57 31 -125 37 -82 6 -132 14 -185 32 -25 9 -67 15 -93 14
-29 -1 -46 2 -43 7 7 12 -15 18 -86 21 -47 2 -58 -1 -58 -13z"/>
<path d="M3173 1075 c-14 -10 -24 -12 -28 -5 -9 14 -73 2 -105 -20 -18 -12
-32 -15 -47 -9 -13 5 -23 5 -23 1 0 -4 -10 -13 -21 -21 -19 -11 -21 -11 -16 3
9 22 -20 21 -32 -2 -8 -14 -20 -17 -65 -15 -45 3 -56 0 -56 -12 0 -18 -30 -21
-30 -2 0 6 -5 4 -11 -5 -5 -10 -19 -18 -29 -18 -11 0 -20 -5 -20 -10 0 -6 -3
-9 -7 -9 -31 5 -48 -19 -38 -52 7 -23 35 -24 78 -5 48 21 118 38 154 36 17 0
67 8 110 19 43 11 103 23 133 27 65 8 131 30 142 47 14 23 8 45 -14 50 -13 2
-30 7 -38 11 -8 3 -25 -1 -37 -9z"/>
<path d="M13029 1074 c-21 -26 -2 -94 39 -136 36 -37 62 -49 62 -28 0 6 5 10
11 10 5 0 8 -4 4 -9 -3 -5 4 -13 16 -16 11 -4 45 -31 74 -61 53 -55 77 -64
109 -41 19 14 29 77 12 74 -9 -2 -11 2 -15 36 -2 20 -78 69 -84 55 -3 -8 -6
-6 -6 4 -1 17 -24 26 -106 43 -21 4 -31 12 -32 25 -3 40 -62 70 -84 44z"/>
<path d="M4170 1059 c0 -6 -8 -8 -19 -4 -25 8 -34 -9 -27 -49 6 -32 6 -32 94
-44 48 -7 110 -17 137 -23 28 -5 64 -9 80 -9 45 1 143 -7 152 -13 4 -2 35 -5
68 -6 33 -1 67 -4 75 -6 18 -6 31 3 47 31 10 18 9 25 -6 38 -10 9 -25 16 -34
16 -9 0 -18 4 -21 8 -8 13 -77 14 -92 1 -11 -9 -14 -8 -14 6 0 15 -6 17 -37
11 -21 -4 -44 -7 -50 -7 -7 0 -31 1 -53 2 -22 1 -40 6 -40 12 0 5 -13 7 -29 4
-16 -4 -31 -2 -33 2 -3 10 -85 25 -140 25 -21 1 -38 4 -38 9 0 4 -4 7 -10 7
-5 0 -10 -5 -10 -11z"/>
<path d="M19006 1035 c-21 -33 -17 -87 8 -91 10 -1 24 -8 30 -15 8 -9 7 -10
-7 -5 -13 4 -17 2 -14 -6 2 -7 11 -12 20 -10 8 1 18 -7 22 -18 8 -24 -12 -53
-30 -46 -11 4 -31 -13 -50 -43 -5 -9 -4 -12 2 -8 6 4 11 -3 12 -16 1 -58 5
-62 41 -57 8 1 27 17 44 36 22 27 32 32 42 23 8 -6 11 -15 8 -20 -3 -5 -2 -9
3 -8 22 4 33 -3 33 -20 0 -24 46 -37 67 -20 22 19 6 102 -22 113 -8 3 -18 14
-24 24 -8 15 -6 25 9 42 11 13 20 31 20 41 0 10 5 21 10 24 6 3 10 13 10 21 0
16 -35 54 -49 54 -18 0 -42 -32 -36 -48 8 -22 -14 -45 -31 -31 -8 6 -14 17
-14 24 0 8 -3 15 -7 17 -5 2 -15 16 -23 32 -20 38 -53 43 -74 11z"/>
<path d="M7485 984 c-27 -36 -25 -56 6 -71 35 -17 79 -21 319 -28 113 -4 210
-11 216 -16 6 -5 18 -4 28 4 17 12 17 16 2 58 -8 24 -15 40 -16 35 0 -5 -6 -4
-12 2 -22 18 -134 20 -123 2 3 -5 1 -10 -4 -10 -6 0 -11 5 -11 10 0 6 -12 10
-27 9 -16 -1 -46 2 -67 6 -31 6 -37 5 -31 -5 6 -10 4 -11 -11 -5 -10 5 -53 9
-95 10 -41 1 -84 7 -96 13 -14 8 -23 8 -31 0 -9 -9 -12 -9 -12 0 0 20 -14 14
-35 -14z"/>
<path d="M8270 978 c0 -17 -3 -19 -9 -9 -12 19 -31 5 -31 -24 0 -31 12 -38 79
-41 31 -2 81 -8 111 -14 71 -15 303 -15 308 -1 2 6 9 11 16 11 7 0 11 12 10
28 -2 38 -1 37 -26 38 -13 1 -42 5 -65 8 -27 4 -43 3 -43 -3 0 -7 -9 -7 -25 1
-18 8 -28 8 -39 -1 -8 -7 -16 -8 -18 -2 -1 5 -28 12 -58 16 -30 3 -63 8 -72
11 -10 3 -26 0 -38 -6 -13 -7 -20 -7 -20 0 0 5 -18 10 -40 10 -35 0 -40 -3
-40 -22z"/>
<path d="M9319 995 c-3 -2 -24 -6 -48 -9 -25 -3 -48 -10 -51 -17 -6 -8 -13 -8
-27 0 -11 5 -22 8 -24 6 -3 -2 -26 -5 -52 -6 -27 -2 -50 -7 -53 -11 -3 -5 -11
-5 -17 -1 -20 12 -47 14 -67 3 -13 -7 -20 -6 -22 1 -2 7 -18 2 -41 -11 -29
-17 -35 -25 -27 -35 8 -10 8 -15 -1 -20 -8 -6 -7 -10 2 -16 19 -12 268 -10
349 2 36 6 90 10 120 10 30 -1 88 2 128 5 58 5 72 10 72 23 -1 22 -35 61 -54
61 -8 0 -17 4 -21 10 -3 5 -15 6 -28 1 -25 -8 -109 -7 -124 2 -6 4 -12 5 -14
2z"/>
<path d="M16960 989 c0 -5 -6 -9 -14 -9 -23 0 -45 -28 -39 -50 3 -11 12 -20
20 -20 7 0 26 -9 42 -21 15 -11 34 -22 42 -23 69 -13 90 -20 95 -27 3 -5 10
-7 15 -3 5 3 16 0 24 -6 23 -19 190 -27 310 -15 39 4 77 7 85 7 9 0 26 8 40
18 20 15 22 20 11 34 -7 9 -17 13 -22 10 -5 -3 -12 1 -15 10 -3 9 -12 12 -21
9 -12 -5 -14 -3 -8 8 6 11 5 12 -6 2 -14 -14 -53 -18 -45 -5 7 11 -82 4 -105
-9 -12 -6 -19 -6 -19 0 0 5 -26 10 -57 10 -51 0 -92 5 -100 11 -2 2 -7 4 -13
5 -5 1 -11 3 -12 5 -5 3 -42 10 -63 12 -11 1 -27 7 -35 13 -22 18 -110 45
-110 34z"/>
<path d="M18775 952 c-16 -2 -36 -9 -43 -15 -10 -8 -16 -7 -21 2 -6 10 -10 9
-15 -4 -5 -13 -13 -15 -34 -10 -52 14 -97 15 -144 4 -26 -6 -53 -7 -60 -3 -27
17 -46 13 -82 -19 -26 -22 -35 -37 -31 -48 7 -20 71 -32 95 -19 10 5 20 7 23
4 11 -11 222 -6 265 5 24 7 57 10 74 7 17 -3 48 2 69 11 61 24 62 72 2 73 -12
0 -32 4 -45 8 -13 4 -36 6 -53 4z"/>
<path d="M4956 941 c-4 -5 -20 -9 -36 -9 -42 1 -48 -9 -20 -35 37 -34 96 -51
215 -63 77 -7 324 -6 375 2 25 3 59 7 76 8 54 4 109 64 89 96 -7 12 -39 13
-49 3 -4 -5 -33 -9 -64 -11 -75 -3 -82 -4 -82 -11 0 -3 -21 -5 -47 -5 -27 1
-54 -3 -61 -9 -7 -5 -16 -7 -19 -3 -4 4 -1 11 7 16 11 7 8 10 -12 10 -16 0
-28 -5 -28 -11 0 -6 -5 -7 -12 -2 -7 4 -42 8 -78 9 -91 2 -231 14 -241 19 -4
3 -10 1 -13 -4z"/>
<path d="M17823 932 c-45 -4 -59 -24 -43 -61 14 -36 58 -46 138 -33 28 5 52 6
52 3 0 -11 185 -4 215 8 51 21 63 65 19 68 -15 0 -29 5 -33 10 -9 14 -71 15
-71 2 0 -8 -4 -8 -12 -1 -12 9 -183 12 -265 4z"/>
<path d="M2036 922 c-4 -7 -24 -12 -45 -12 -20 0 -42 -5 -49 -12 -8 -8 -15 -8
-26 2 -15 12 -55 6 -43 -7 4 -3 1 -13 -6 -21 -8 -11 -8 -14 0 -9 6 4 13 2 15
-5 2 -6 30 -13 64 -14 32 -2 85 -8 116 -14 60 -11 257 -6 345 8 51 8 83 25 83
44 0 25 -63 58 -75 38 -3 -5 -11 -10 -16 -10 -6 0 -8 4 -5 9 10 15 -25 6 -35
-10 -8 -12 -10 -12 -19 1 -11 18 -13 18 -32 2 -9 -7 -18 -9 -20 -3 -1 5 -16 7
-31 4 -22 -4 -25 -8 -15 -15 8 -6 3 -7 -17 -3 -36 9 -42 9 -77 2 -15 -3 -30
-1 -34 4 -3 6 -12 8 -20 5 -8 -3 -14 -1 -14 5 0 6 -6 9 -14 6 -8 -3 -16 -1
-19 6 -2 8 -5 8 -11 -1z"/>
<path d="M15695 874 c-20 -27 -35 -31 -35 -10 0 11 -8 12 -36 6 -20 -5 -51 -6
-70 -4 -20 2 -34 0 -34 -6 0 -7 -7 -8 -17 -2 -10 4 -52 7 -93 5 -41 -2 -85 -3
-97 -3 -13 0 -23 -4 -23 -9 0 -5 -14 -8 -31 -7 -26 1 -33 -4 -41 -27 -19 -55
-19 -55 229 -52 182 2 235 6 264 18 19 9 66 18 103 20 73 5 99 20 90 53 -7 27
-54 42 -130 42 -52 0 -63 -3 -79 -24z"/>
<path d="M14484 873 c-26 -4 -31 -8 -31 -34 0 -16 2 -27 5 -24 2 2 12 -5 21
-16 15 -18 31 -21 150 -26 103 -4 135 -3 141 7 6 10 12 10 25 -4 11 -10 24
-14 34 -10 9 4 23 6 31 6 8 -1 44 -4 80 -6 36 -3 73 -3 82 0 25 7 32 41 14 60
-12 12 -16 12 -17 2 0 -7 -4 -3 -9 10 -5 12 -17 23 -27 23 -45 3 -89 1 -105
-6 -9 -4 -23 -3 -30 1 -20 12 -178 15 -200 3 -11 -6 -23 -7 -27 -2 -3 4 -19 8
-36 8 -16 1 -39 3 -50 6 -11 3 -34 4 -51 2z"/>
<path d="M12852 846 c-44 -22 -39 -73 9 -83 16 -3 29 -9 29 -12 0 -8 49 -11
205 -14 l100 -2 -2 29 c-3 35 -34 59 -88 67 -30 5 -43 3 -52 -9 -10 -12 -15
-13 -28 -2 -19 15 -83 22 -91 9 -3 -5 -10 -9 -15 -9 -6 0 -8 4 -4 9 5 8 -27
34 -37 30 -2 -1 -13 -6 -26 -13z"/>
<path d="M12030 807 c-32 -17 -29 -62 6 -95 13 -13 24 -19 24 -15 0 4 7 -3 16
-15 15 -22 60 -47 77 -44 4 1 7 -1 7 -6 0 -15 65 -42 121 -50 61 -9 122 7 156
41 16 16 16 18 0 34 -13 13 -36 17 -104 17 -81 1 -91 3 -125 30 -23 17 -44 26
-54 22 -11 -4 -15 -2 -11 8 3 8 -5 19 -19 26 -13 7 -31 24 -39 37 -18 27 -21
27 -55 10z"/>
</g>
</svg>
